solid Waterproof Lower Casing BSE robot tank
facet normal 1.0 6.059410833694383e-33 -6.724815093832011e-31
  outer loop
    vertex 63.99999999999997 0.0 0.0
    vertex 63.99999999999997 9.401923788646684 13.499999999999995
    vertex 63.99999999999997 0.0 35.0
  endloop
endfacet
facet normal 1.0 6.059410833694383e-33 -6.724815093832011e-31
  outer loop
    vertex 63.99999999999997 9.401923788646684 13.499999999999995
    vertex 63.99999999999997 0.0 0.0
    vertex 63.99999999999997 9.878679656440358 12.878679656440353
  endloop
endfacet
facet normal 1.0 6.059410833694383e-33 -6.724815093832011e-31
  outer loop
    vertex 63.99999999999997 9.878679656440358 12.878679656440353
    vertex 63.99999999999997 0.0 0.0
    vertex 63.99999999999997 10.5 12.401923788646679
  endloop
endfacet
facet normal 1.0 6.059410833694383e-33 -6.724815093832011e-31
  outer loop
    vertex 63.99999999999997 10.5 12.401923788646679
    vertex 63.99999999999997 0.0 0.0
    vertex 63.99999999999997 11.223542864692439 12.10222252113279
  endloop
endfacet
facet normal 1.0 6.059410833694383e-33 -6.724815093832011e-31
  outer loop
    vertex 63.99999999999997 11.223542864692439 12.10222252113279
    vertex 63.99999999999997 0.0 0.0
    vertex 63.99999999999997 12.0 11.999999999999995
  endloop
endfacet
facet normal 1.0 6.059410833694383e-33 -6.724815093832011e-31
  outer loop
    vertex 63.99999999999997 12.0 11.999999999999995
    vertex 63.99999999999997 0.0 0.0
    vertex 63.99999999999997 164.0 0.0
  endloop
endfacet
facet normal 1.0 6.059410833694383e-33 -6.724815093832011e-31
  outer loop
    vertex 63.99999999999997 0.0 35.0
    vertex 63.99999999999997 9.401923788646684 13.499999999999995
    vertex 63.99999999999997 9.102222521132795 14.223542864692432
  endloop
endfacet
facet normal 1.0 6.059410833694383e-33 -6.724815093832011e-31
  outer loop
    vertex 63.99999999999997 0.0 35.0
    vertex 63.99999999999997 9.102222521132795 14.223542864692432
    vertex 63.99999999999997 9.0 14.999999999999995
  endloop
endfacet
facet normal 1.0 6.059410833694383e-33 -6.724815093832011e-31
  outer loop
    vertex 63.99999999999997 12.0 11.999999999999995
    vertex 63.99999999999997 164.0 0.0
    vertex 63.99999999999997 12.776457135307563 12.10222252113279
  endloop
endfacet
facet normal 1.0 6.059410833694383e-33 -6.724815093832011e-31
  outer loop
    vertex 63.99999999999997 12.776457135307563 12.10222252113279
    vertex 63.99999999999997 164.0 0.0
    vertex 63.99999999999997 13.5 12.401923788646679
  endloop
endfacet
facet normal 1.0 6.059410833694383e-33 -6.724815093832011e-31
  outer loop
    vertex 63.99999999999997 13.5 12.401923788646679
    vertex 63.99999999999997 164.0 0.0
    vertex 63.99999999999997 14.121320343559642 12.878679656440353
  endloop
endfacet
facet normal 1.0 6.059410833694383e-33 -6.724815093832011e-31
  outer loop
    vertex 63.99999999999997 14.121320343559642 12.878679656440353
    vertex 63.99999999999997 164.0 0.0
    vertex 63.99999999999997 14.598076211353316 13.499999999999995
  endloop
endfacet
facet normal 1.0 6.059410833694383e-33 -6.724815093832011e-31
  outer loop
    vertex 63.99999999999997 14.598076211353316 13.499999999999995
    vertex 63.99999999999997 164.0 0.0
    vertex 63.99999999999997 14.897777478867205 14.223542864692432
  endloop
endfacet
facet normal 1.0 6.059410833694383e-33 -6.724815093832011e-31
  outer loop
    vertex 63.99999999999997 14.897777478867205 14.223542864692432
    vertex 63.99999999999997 164.0 0.0
    vertex 63.99999999999997 15.0 14.999999999999995
  endloop
endfacet
facet normal 1.0 6.059410833694383e-33 -6.724815093832011e-31
  outer loop
    vertex 63.99999999999997 15.0 14.999999999999995
    vertex 63.99999999999997 164.0 0.0
    vertex 63.99999999999997 15.0 34.99999999999999
  endloop
endfacet
facet normal 1.0 6.059410833694383e-33 -6.724815093832011e-31
  outer loop
    vertex 63.99999999999997 15.0 34.99999999999999
    vertex 63.99999999999997 164.0 0.0
    vertex 63.99999999999997 145.74999999999997 12.401923788646684
  endloop
endfacet
facet normal 1.0 6.059410833694383e-33 -6.724815093832011e-31
  outer loop
    vertex 63.99999999999997 15.0 34.99999999999999
    vertex 63.99999999999997 145.74999999999997 12.401923788646684
    vertex 63.99999999999997 145.1286796564403 12.878679656440356
  endloop
endfacet
facet normal 1.0 6.059410833694383e-33 -6.724815093832011e-31
  outer loop
    vertex 63.99999999999997 15.0 34.99999999999999
    vertex 63.99999999999997 145.1286796564403 12.878679656440356
    vertex 63.99999999999997 144.65192378864666 13.499999999999998
  endloop
endfacet
facet normal 1.0 6.059410833694383e-33 -6.724815093832011e-31
  outer loop
    vertex 63.99999999999997 15.0 34.99999999999999
    vertex 63.99999999999997 144.65192378864666 13.499999999999998
    vertex 63.99999999999997 144.35222252113277 14.223542864692435
  endloop
endfacet
facet normal 1.0 6.059410833694383e-33 -6.724815093832011e-31
  outer loop
    vertex 63.99999999999997 15.0 34.99999999999999
    vertex 63.99999999999997 144.35222252113277 14.223542864692435
    vertex 63.99999999999997 144.24999999999997 14.999999999999995
  endloop
endfacet
facet normal 1.0 6.059410833694383e-33 -6.724815093832011e-31
  outer loop
    vertex 63.99999999999997 145.74999999999997 12.401923788646684
    vertex 63.99999999999997 164.0 0.0
    vertex 63.99999999999997 146.4735428646924 12.102222521132795
  endloop
endfacet
facet normal 1.0 6.059410833694383e-33 -6.724815093832011e-31
  outer loop
    vertex 63.99999999999997 146.4735428646924 12.102222521132795
    vertex 63.99999999999997 164.0 0.0
    vertex 63.99999999999997 147.24999999999997 12.0
  endloop
endfacet
facet normal 1.0 6.059410833694383e-33 -6.724815093832011e-31
  outer loop
    vertex 63.99999999999997 147.24999999999997 12.0
    vertex 63.99999999999997 164.0 0.0
    vertex 63.99999999999997 148.02645713530754 12.102222521132795
  endloop
endfacet
facet normal 1.0 6.059410833694383e-33 -6.724815093832011e-31
  outer loop
    vertex 63.99999999999997 148.02645713530754 12.102222521132795
    vertex 63.99999999999997 164.0 0.0
    vertex 63.99999999999997 148.74999999999997 12.401923788646684
  endloop
endfacet
facet normal 1.0 6.059410833694383e-33 -6.724815093832011e-31
  outer loop
    vertex 63.99999999999997 148.74999999999997 12.401923788646684
    vertex 63.99999999999997 164.0 0.0
    vertex 63.99999999999997 149.3713203435596 12.878679656440356
  endloop
endfacet
facet normal 1.0 6.059410833694383e-33 -6.724815093832011e-31
  outer loop
    vertex 63.99999999999997 149.3713203435596 12.878679656440356
    vertex 63.99999999999997 164.0 0.0
    vertex 63.99999999999997 149.84807621135326 13.499999999999998
  endloop
endfacet
facet normal 1.0 6.059410833694383e-33 -6.724815093832011e-31
  outer loop
    vertex 63.99999999999997 149.84807621135326 13.499999999999998
    vertex 63.99999999999997 164.0 0.0
    vertex 63.99999999999997 150.14777747886717 14.223542864692432
  endloop
endfacet
facet normal 1.0 6.059410833694383e-33 -6.724815093832011e-31
  outer loop
    vertex 63.99999999999997 150.14777747886717 14.223542864692432
    vertex 63.99999999999997 164.0 0.0
    vertex 63.99999999999997 150.24999999999997 14.999999999999995
  endloop
endfacet
facet normal 1.0 6.059410833694383e-33 -6.724815093832011e-31
  outer loop
    vertex 63.99999999999997 150.24999999999997 14.999999999999995
    vertex 63.99999999999997 164.0 0.0
    vertex 63.99999999999997 150.24999999999997 34.99999999999999
  endloop
endfacet
facet normal 1.0 6.059410833694383e-33 -6.724815093832011e-31
  outer loop
    vertex 63.99999999999997 150.24999999999997 34.99999999999999
    vertex 63.99999999999997 164.0 0.0
    vertex 63.99999999999997 164.0 35.0
  endloop
endfacet
facet normal 1.0 6.059410833694383e-33 -6.724815093832011e-31
  outer loop
    vertex 63.99999999999997 144.24999999999997 34.99999999999999
    vertex 63.99999999999997 15.0 34.99999999999999
    vertex 63.99999999999997 144.24999999999997 14.999999999999995
  endloop
endfacet
facet normal 1.0 6.059410833694383e-33 -6.724815093832011e-31
  outer loop
    vertex 63.99999999999997 9.0 34.99999999999999
    vertex 63.99999999999997 0.0 35.0
    vertex 63.99999999999997 9.0 14.999999999999995
  endloop
endfacet
facet normal 4.5436050394482765e-17 -2.184858193846447e-16 1.0
  outer loop
    vertex 2.0000000000000426 150.24999999999997 35.0
    vertex 1.9999999999999962 162.0 35.0
    vertex 4.2702349592868183e-14 150.24999999999997 35.0
  endloop
endfacet
facet normal 4.5436050394482765e-17 -2.184858193846447e-16 1.0
  outer loop
    vertex 63.99999999999997 150.24999999999997 34.99999999999999
    vertex 61.99999999999998 162.0 35.0
    vertex 61.99999999999998 150.24999999999997 34.99999999999999
  endloop
endfacet
facet normal 4.5436050394482765e-17 -2.184858193846447e-16 1.0
  outer loop
    vertex 0.0 164.0 35.0
    vertex 1.9999999999999962 162.0 35.0
    vertex 63.99999999999997 164.0 35.0
  endloop
endfacet
facet normal 4.5436050394482765e-17 -2.184858193846447e-16 1.0
  outer loop
    vertex 1.9999999999999962 162.0 35.0
    vertex 0.0 164.0 35.0
    vertex 4.2702349592868183e-14 150.24999999999997 35.0
  endloop
endfacet
facet normal 4.5436050394482765e-17 -2.184858193846447e-16 1.0
  outer loop
    vertex 63.99999999999997 164.0 35.0
    vertex 1.9999999999999962 162.0 35.0
    vertex 61.99999999999998 162.0 35.0
  endloop
endfacet
facet normal 4.5436050394482765e-17 -2.184858193846447e-16 1.0
  outer loop
    vertex 63.99999999999997 164.0 35.0
    vertex 61.99999999999998 162.0 35.0
    vertex 63.99999999999997 150.24999999999997 34.99999999999999
  endloop
endfacet
facet normal 0.0 1.0 0.0
  outer loop
    vertex 0.0 164.0 35.0
    vertex 63.99999999999997 164.0 0.0
    vertex 0.0 164.0 0.0
  endloop
endfacet
facet normal 0.0 1.0 0.0
  outer loop
    vertex 63.99999999999997 164.0 0.0
    vertex 0.0 164.0 35.0
    vertex 63.99999999999997 164.0 35.0
  endloop
endfacet
facet normal 4.543605039448277e-17 3.418141190967148e-16 1.0
  outer loop
    vertex 0.0 0.0 35.0
    vertex 1.9999999999999962 1.9999999999999998 35.0
    vertex 0.0 9.0 35.0
  endloop
endfacet
facet normal 4.543605039448277e-17 3.418141190967148e-16 1.0
  outer loop
    vertex 1.9999999999999962 1.9999999999999998 35.0
    vertex 0.0 0.0 35.0
    vertex 63.99999999999997 0.0 35.0
  endloop
endfacet
facet normal 4.543605039448277e-17 3.418141190967148e-16 1.0
  outer loop
    vertex 1.9999999999999962 1.9999999999999998 35.0
    vertex 63.99999999999997 0.0 35.0
    vertex 61.99999999999998 1.9999999999999998 35.0
  endloop
endfacet
facet normal 4.543605039448277e-17 3.418141190967148e-16 1.0
  outer loop
    vertex 61.99999999999998 1.9999999999999998 35.0
    vertex 63.99999999999997 0.0 35.0
    vertex 61.99999999999998 9.0 34.99999999999999
  endloop
endfacet
facet normal 4.543605039448277e-17 3.418141190967148e-16 1.0
  outer loop
    vertex 61.99999999999998 9.0 34.99999999999999
    vertex 63.99999999999997 0.0 35.0
    vertex 63.99999999999997 9.0 34.99999999999999
  endloop
endfacet
facet normal 4.543605039448277e-17 3.418141190967148e-16 1.0
  outer loop
    vertex 1.9999999999999962 9.0 35.0
    vertex 0.0 9.0 35.0
    vertex 1.9999999999999962 1.9999999999999998 35.0
  endloop
endfacet
facet normal -0.0 -1.0 -0.0
  outer loop
    vertex 63.99999999999997 0.0 35.0
    vertex 0.0 0.0 0.0
    vertex 63.99999999999997 0.0 0.0
  endloop
endfacet
facet normal -0.0 -1.0 -0.0
  outer loop
    vertex 0.0 0.0 0.0
    vertex 63.99999999999997 0.0 35.0
    vertex 0.0 0.0 35.0
  endloop
endfacet
facet normal -0.0 -0.0 1.0
  outer loop
    vertex 63.99999999999997 15.0 34.99999999999999
    vertex 61.99999999999998 144.24999999999997 34.99999999999999
    vertex 61.99999999999998 15.0 34.99999999999999
  endloop
endfacet
facet normal -0.0 -0.0 1.0
  outer loop
    vertex 61.99999999999998 144.24999999999997 34.99999999999999
    vertex 63.99999999999997 15.0 34.99999999999999
    vertex 63.99999999999997 144.24999999999997 34.99999999999999
  endloop
endfacet
facet normal 0.0 0.0 -1.0
  outer loop
    vertex 0.0 164.0 0.0
    vertex 1.9999999999999962 162.0 0.0
    vertex 0.0 0.0 0.0
  endloop
endfacet
facet normal 0.0 0.0 -1.0
  outer loop
    vertex 1.9999999999999962 162.0 0.0
    vertex 0.0 164.0 0.0
    vertex 63.99999999999997 164.0 0.0
  endloop
endfacet
facet normal 0.0 0.0 -1.0
  outer loop
    vertex 1.9999999999999962 162.0 0.0
    vertex 63.99999999999997 164.0 0.0
    vertex 61.99999999999998 162.0 0.0
  endloop
endfacet
facet normal 0.0 0.0 -1.0
  outer loop
    vertex 61.99999999999998 162.0 0.0
    vertex 63.99999999999997 164.0 0.0
    vertex 61.99999999999998 1.9999999999999998 0.0
  endloop
endfacet
facet normal 0.0 0.0 -1.0
  outer loop
    vertex 0.0 0.0 0.0
    vertex 1.9999999999999962 1.9999999999999998 0.0
    vertex 63.99999999999997 0.0 0.0
  endloop
endfacet
facet normal 0.0 0.0 -1.0
  outer loop
    vertex 1.9999999999999962 1.9999999999999998 0.0
    vertex 0.0 0.0 0.0
    vertex 1.9999999999999962 162.0 0.0
  endloop
endfacet
facet normal 0.0 0.0 -1.0
  outer loop
    vertex 63.99999999999997 0.0 0.0
    vertex 1.9999999999999962 1.9999999999999998 0.0
    vertex 61.99999999999998 1.9999999999999998 0.0
  endloop
endfacet
facet normal 0.0 0.0 -1.0
  outer loop
    vertex 63.99999999999997 0.0 0.0
    vertex 61.99999999999998 1.9999999999999998 0.0
    vertex 63.99999999999997 164.0 0.0
  endloop
endfacet
facet normal -0.0 -0.0 1.0
  outer loop
    vertex 1.9999999999999953 15.0 35.0
    vertex 4.4838637183085245e-14 144.24999999999997 35.0
    vertex 2.8259645283457094e-16 15.0 35.0
  endloop
endfacet
facet normal -0.0 -0.0 1.0
  outer loop
    vertex 4.4838637183085245e-14 144.24999999999997 35.0
    vertex 1.9999999999999953 15.0 35.0
    vertex 2.0000000000000315 144.24999999999997 35.0
  endloop
endfacet
facet normal -0.0 1.0 -0.0
  outer loop
    vertex 1.9999999999999962 1.9999999999999998 35.0
    vertex 61.99999999999998 1.9999999999999998 1.9999999999999998
    vertex 1.9999999999999962 1.9999999999999998 1.9999999999999998
  endloop
endfacet
facet normal -0.0 1.0 -0.0
  outer loop
    vertex 61.99999999999998 1.9999999999999998 1.9999999999999998
    vertex 1.9999999999999962 1.9999999999999998 35.0
    vertex 61.99999999999998 1.9999999999999998 35.0
  endloop
endfacet
facet normal 1.0 -2.805690559054472e-16 1.4090555381787373e-16
  outer loop
    vertex 1.9999999999999962 1.9999999999999998 1.9999999999999998
    vertex 1.999999999999995 9.102222521132795 14.223542864692432
    vertex 1.9999999999999962 1.9999999999999998 35.0
  endloop
endfacet
facet normal 1.0 -2.805690559054472e-16 1.4090555381787373e-16
  outer loop
    vertex 1.999999999999995 9.102222521132795 14.223542864692432
    vertex 1.9999999999999962 1.9999999999999998 1.9999999999999998
    vertex 1.999999999999995 9.401923788646684 13.499999999999995
  endloop
endfacet
facet normal 1.0 -2.805690559054472e-16 1.4090555381787373e-16
  outer loop
    vertex 1.999999999999995 9.401923788646684 13.499999999999995
    vertex 1.9999999999999962 1.9999999999999998 1.9999999999999998
    vertex 1.999999999999995 9.878679656440358 12.878679656440353
  endloop
endfacet
facet normal 1.0 -2.805690559054472e-16 1.4090555381787373e-16
  outer loop
    vertex 1.999999999999995 9.878679656440358 12.878679656440353
    vertex 1.9999999999999962 1.9999999999999998 1.9999999999999998
    vertex 1.999999999999995 10.5 12.401923788646679
  endloop
endfacet
facet normal 1.0 -2.805690559054472e-16 1.4090555381787373e-16
  outer loop
    vertex 1.999999999999995 10.5 12.401923788646679
    vertex 1.9999999999999962 1.9999999999999998 1.9999999999999998
    vertex 1.999999999999995 11.223542864692439 12.10222252113279
  endloop
endfacet
facet normal 1.0 -2.805690559054472e-16 1.4090555381787373e-16
  outer loop
    vertex 1.999999999999995 11.223542864692439 12.10222252113279
    vertex 1.9999999999999962 1.9999999999999998 1.9999999999999998
    vertex 1.999999999999995 12.0 11.999999999999995
  endloop
endfacet
facet normal 1.0 -2.805690559054472e-16 1.4090555381787373e-16
  outer loop
    vertex 1.999999999999995 12.0 11.999999999999995
    vertex 1.9999999999999962 1.9999999999999998 1.9999999999999998
    vertex 1.9999999999999962 162.0 1.9999999999999998
  endloop
endfacet
facet normal 1.0 -2.805690559054472e-16 1.4090555381787373e-16
  outer loop
    vertex 1.9999999999999962 1.9999999999999998 35.0
    vertex 1.999999999999995 9.102222521132795 14.223542864692432
    vertex 1.9999999999999962 9.0 14.999999999999995
  endloop
endfacet
facet normal 1.0 -2.805690559054472e-16 1.4090555381787373e-16
  outer loop
    vertex 1.999999999999995 12.0 11.999999999999995
    vertex 1.9999999999999962 162.0 1.9999999999999998
    vertex 1.999999999999995 12.776457135307563 12.10222252113279
  endloop
endfacet
facet normal 1.0 -2.805690559054472e-16 1.4090555381787373e-16
  outer loop
    vertex 1.999999999999995 12.776457135307563 12.10222252113279
    vertex 1.9999999999999962 162.0 1.9999999999999998
    vertex 1.999999999999995 13.5 12.401923788646679
  endloop
endfacet
facet normal 1.0 -2.805690559054472e-16 1.4090555381787373e-16
  outer loop
    vertex 1.999999999999995 13.5 12.401923788646679
    vertex 1.9999999999999962 162.0 1.9999999999999998
    vertex 1.999999999999995 14.121320343559642 12.878679656440353
  endloop
endfacet
facet normal 1.0 -2.805690559054472e-16 1.4090555381787373e-16
  outer loop
    vertex 1.999999999999995 14.121320343559642 12.878679656440353
    vertex 1.9999999999999962 162.0 1.9999999999999998
    vertex 1.999999999999995 14.598076211353316 13.499999999999995
  endloop
endfacet
facet normal 1.0 -2.805690559054472e-16 1.4090555381787373e-16
  outer loop
    vertex 1.999999999999995 14.598076211353316 13.499999999999995
    vertex 1.9999999999999962 162.0 1.9999999999999998
    vertex 1.999999999999995 14.897777478867205 14.223542864692432
  endloop
endfacet
facet normal 1.0 -2.805690559054472e-16 1.4090555381787373e-16
  outer loop
    vertex 1.999999999999995 14.897777478867205 14.223542864692432
    vertex 1.9999999999999962 162.0 1.9999999999999998
    vertex 1.999999999999995 15.0 14.999999999999995
  endloop
endfacet
facet normal 1.0 -2.805690559054472e-16 1.4090555381787373e-16
  outer loop
    vertex 1.999999999999995 15.0 14.999999999999995
    vertex 1.9999999999999962 162.0 1.9999999999999998
    vertex 1.9999999999999953 15.0 35.0
  endloop
endfacet
facet normal 1.0 -2.805690559054472e-16 1.4090555381787373e-16
  outer loop
    vertex 1.9999999999999953 15.0 35.0
    vertex 1.9999999999999962 162.0 1.9999999999999998
    vertex 2.0000000000000413 145.74999999999997 12.401923788646672
  endloop
endfacet
facet normal 1.0 -2.805690559054472e-16 1.4090555381787373e-16
  outer loop
    vertex 1.9999999999999953 15.0 35.0
    vertex 2.0000000000000413 145.74999999999997 12.401923788646672
    vertex 2.0000000000000413 145.1286796564403 12.878679656440344
  endloop
endfacet
facet normal 1.0 -2.805690559054472e-16 1.4090555381787373e-16
  outer loop
    vertex 1.9999999999999953 15.0 35.0
    vertex 2.0000000000000413 145.1286796564403 12.878679656440344
    vertex 2.0000000000000413 144.65192378864666 13.499999999999986
  endloop
endfacet
facet normal 1.0 -2.805690559054472e-16 1.4090555381787373e-16
  outer loop
    vertex 1.9999999999999953 15.0 35.0
    vertex 2.0000000000000413 144.65192378864666 13.499999999999986
    vertex 2.0000000000000413 144.35222252113277 14.223542864692424
  endloop
endfacet
facet normal 1.0 -2.805690559054472e-16 1.4090555381787373e-16
  outer loop
    vertex 1.9999999999999953 15.0 35.0
    vertex 2.0000000000000413 144.35222252113277 14.223542864692424
    vertex 2.0000000000000413 144.24999999999997 14.999999999999984
  endloop
endfacet
facet normal 1.0 -2.805690559054472e-16 1.4090555381787373e-16
  outer loop
    vertex 2.0000000000000413 145.74999999999997 12.401923788646672
    vertex 1.9999999999999962 162.0 1.9999999999999998
    vertex 2.0000000000000413 146.4735428646924 12.102222521132784
  endloop
endfacet
facet normal 1.0 -2.805690559054472e-16 1.4090555381787373e-16
  outer loop
    vertex 2.0000000000000413 146.4735428646924 12.102222521132784
    vertex 1.9999999999999962 162.0 1.9999999999999998
    vertex 2.0000000000000413 147.24999999999997 11.99999999999999
  endloop
endfacet
facet normal 1.0 -2.805690559054472e-16 1.4090555381787373e-16
  outer loop
    vertex 2.0000000000000413 147.24999999999997 11.99999999999999
    vertex 1.9999999999999962 162.0 1.9999999999999998
    vertex 2.0000000000000413 148.02645713530754 12.102222521132784
  endloop
endfacet
facet normal 1.0 -2.805690559054472e-16 1.4090555381787373e-16
  outer loop
    vertex 2.0000000000000413 148.02645713530754 12.102222521132784
    vertex 1.9999999999999962 162.0 1.9999999999999998
    vertex 2.0000000000000413 148.74999999999997 12.401923788646672
  endloop
endfacet
facet normal 1.0 -2.805690559054472e-16 1.4090555381787373e-16
  outer loop
    vertex 2.0000000000000413 148.74999999999997 12.401923788646672
    vertex 1.9999999999999962 162.0 1.9999999999999998
    vertex 2.0000000000000413 149.3713203435596 12.878679656440344
  endloop
endfacet
facet normal 1.0 -2.805690559054472e-16 1.4090555381787373e-16
  outer loop
    vertex 2.0000000000000413 149.3713203435596 12.878679656440344
    vertex 1.9999999999999962 162.0 1.9999999999999998
    vertex 2.0000000000000413 149.84807621135326 13.499999999999986
  endloop
endfacet
facet normal 1.0 -2.805690559054472e-16 1.4090555381787373e-16
  outer loop
    vertex 2.0000000000000413 149.84807621135326 13.499999999999986
    vertex 1.9999999999999962 162.0 1.9999999999999998
    vertex 2.0000000000000413 150.14777747886717 14.223542864692421
  endloop
endfacet
facet normal 1.0 -2.805690559054472e-16 1.4090555381787373e-16
  outer loop
    vertex 2.0000000000000413 150.14777747886717 14.223542864692421
    vertex 1.9999999999999962 162.0 1.9999999999999998
    vertex 2.0000000000000413 150.24999999999997 14.999999999999984
  endloop
endfacet
facet normal 1.0 -2.805690559054472e-16 1.4090555381787373e-16
  outer loop
    vertex 2.0000000000000413 150.24999999999997 14.999999999999984
    vertex 1.9999999999999962 162.0 1.9999999999999998
    vertex 2.0000000000000426 150.24999999999997 35.0
  endloop
endfacet
facet normal 1.0 -2.805690559054472e-16 1.4090555381787373e-16
  outer loop
    vertex 2.0000000000000426 150.24999999999997 35.0
    vertex 1.9999999999999962 162.0 1.9999999999999998
    vertex 1.9999999999999962 162.0 35.0
  endloop
endfacet
facet normal 1.0 -2.805690559054472e-16 1.4090555381787373e-16
  outer loop
    vertex 2.0000000000000315 144.24999999999997 35.0
    vertex 1.9999999999999953 15.0 35.0
    vertex 2.0000000000000413 144.24999999999997 14.999999999999984
  endloop
endfacet
facet normal 1.0 -2.805690559054472e-16 1.4090555381787373e-16
  outer loop
    vertex 1.9999999999999962 9.0 35.0
    vertex 1.9999999999999962 1.9999999999999998 35.0
    vertex 1.9999999999999962 9.0 14.999999999999995
  endloop
endfacet
facet normal 0.0 -1.0 0.0
  outer loop
    vertex 61.99999999999998 162.0 35.0
    vertex 1.9999999999999962 162.0 1.9999999999999998
    vertex 61.99999999999998 162.0 1.9999999999999998
  endloop
endfacet
facet normal 0.0 -1.0 0.0
  outer loop
    vertex 1.9999999999999962 162.0 1.9999999999999998
    vertex 61.99999999999998 162.0 35.0
    vertex 1.9999999999999962 162.0 35.0
  endloop
endfacet
facet normal 0.0 0.0 -1.0
  outer loop
    vertex 61.99999999999998 1.9999999999999998 0.0
    vertex 1.9999999999999962 1.9999999999999998 0.0
    vertex 1.9999999999999962 162.0 0.0
  endloop
endfacet
facet normal 0.0 0.0 -1.0
  outer loop
    vertex 61.99999999999998 1.9999999999999998 0.0
    vertex 1.9999999999999962 162.0 0.0
    vertex 61.99999999999998 162.0 0.0
  endloop
endfacet
facet normal -0.0 -0.0 1.0
  outer loop
    vertex 61.99999999999998 162.0 1.9999999999999998
    vertex 1.9999999999999962 162.0 1.9999999999999998
    vertex 61.99999999999998 1.9999999999999998 1.9999999999999998
  endloop
endfacet
facet normal -0.0 -0.0 1.0
  outer loop
    vertex 61.99999999999998 1.9999999999999998 1.9999999999999998
    vertex 1.9999999999999962 162.0 1.9999999999999998
    vertex 1.9999999999999962 1.9999999999999998 1.9999999999999998
  endloop
endfacet
facet normal 0.0 -0.9914448613738114 0.1305261922200446
  outer loop
    vertex 2.0000000000000413 150.24999999999997 14.999999999999984
    vertex 4.511946372076636e-14 150.14777747886717 14.223542864692421
    vertex 2.0000000000000413 150.14777747886717 14.223542864692421
  endloop
endfacet
facet normal 0.0 -0.9914448613738114 0.1305261922200446
  outer loop
    vertex 4.511946372076636e-14 150.14777747886717 14.223542864692421
    vertex 2.0000000000000413 150.24999999999997 14.999999999999984
    vertex 4.511946372076636e-14 150.24999999999997 14.999999999999984
  endloop
endfacet
facet normal -0.0 -0.9238795325112793 0.382683432365108
  outer loop
    vertex 2.0000000000000413 150.14777747886717 14.223542864692421
    vertex 4.511946372076636e-14 149.84807621135326 13.499999999999986
    vertex 2.0000000000000413 149.84807621135326 13.499999999999986
  endloop
endfacet
facet normal -0.0 -0.9238795325112793 0.382683432365108
  outer loop
    vertex 4.511946372076636e-14 149.84807621135326 13.499999999999986
    vertex 2.0000000000000413 150.14777747886717 14.223542864692421
    vertex 4.511946372076636e-14 150.14777747886717 14.223542864692421
  endloop
endfacet
facet normal -0.0 -0.7933533402912477 0.6087614290087043
  outer loop
    vertex 2.0000000000000413 149.84807621135326 13.499999999999986
    vertex 4.511946372076636e-14 149.3713203435596 12.878679656440344
    vertex 2.0000000000000413 149.3713203435596 12.878679656440344
  endloop
endfacet
facet normal -0.0 -0.7933533402912477 0.6087614290087043
  outer loop
    vertex 4.511946372076636e-14 149.3713203435596 12.878679656440344
    vertex 2.0000000000000413 149.84807621135326 13.499999999999986
    vertex 4.511946372076636e-14 149.84807621135326 13.499999999999986
  endloop
endfacet
facet normal -0.0 -0.608761429008715 0.7933533402912395
  outer loop
    vertex 2.0000000000000413 148.74999999999997 12.401923788646672
    vertex 4.511946372076636e-14 149.3713203435596 12.878679656440344
    vertex 4.511946372076636e-14 148.74999999999997 12.401923788646672
  endloop
endfacet
facet normal -0.0 -0.608761429008715 0.7933533402912395
  outer loop
    vertex 4.511946372076636e-14 149.3713203435596 12.878679656440344
    vertex 2.0000000000000413 148.74999999999997 12.401923788646672
    vertex 2.0000000000000413 149.3713203435596 12.878679656440344
  endloop
endfacet
facet normal -0.0 -0.38268343236508695 0.923879532511288
  outer loop
    vertex 2.0000000000000413 148.02645713530754 12.102222521132784
    vertex 4.511946372076636e-14 148.74999999999997 12.401923788646672
    vertex 4.511946372076636e-14 148.02645713530754 12.102222521132784
  endloop
endfacet
facet normal -0.0 -0.38268343236508695 0.923879532511288
  outer loop
    vertex 4.511946372076636e-14 148.74999999999997 12.401923788646672
    vertex 2.0000000000000413 148.02645713530754 12.102222521132784
    vertex 2.0000000000000413 148.74999999999997 12.401923788646672
  endloop
endfacet
facet normal -0.0 -0.13052619222005263 0.9914448613738104
  outer loop
    vertex 2.0000000000000413 147.24999999999997 11.99999999999999
    vertex 4.511946372076636e-14 148.02645713530754 12.102222521132784
    vertex 4.511946372076636e-14 147.24999999999997 11.99999999999999
  endloop
endfacet
facet normal -0.0 -0.13052619222005263 0.9914448613738104
  outer loop
    vertex 4.511946372076636e-14 148.02645713530754 12.102222521132784
    vertex 2.0000000000000413 147.24999999999997 11.99999999999999
    vertex 2.0000000000000413 148.02645713530754 12.102222521132784
  endloop
endfacet
facet normal 0.0 0.13052619222005263 0.9914448613738104
  outer loop
    vertex 2.0000000000000413 146.4735428646924 12.102222521132784
    vertex 4.511946372076636e-14 147.24999999999997 11.99999999999999
    vertex 4.511946372076636e-14 146.4735428646924 12.102222521132784
  endloop
endfacet
facet normal 0.0 0.13052619222005263 0.9914448613738104
  outer loop
    vertex 4.511946372076636e-14 147.24999999999997 11.99999999999999
    vertex 2.0000000000000413 146.4735428646924 12.102222521132784
    vertex 2.0000000000000413 147.24999999999997 11.99999999999999
  endloop
endfacet
facet normal 0.0 0.38268343236508695 0.923879532511288
  outer loop
    vertex 2.0000000000000413 145.74999999999997 12.401923788646672
    vertex 4.511946372076636e-14 146.4735428646924 12.102222521132784
    vertex 4.511946372076636e-14 145.74999999999997 12.401923788646672
  endloop
endfacet
facet normal 0.0 0.38268343236508695 0.923879532511288
  outer loop
    vertex 4.511946372076636e-14 146.4735428646924 12.102222521132784
    vertex 2.0000000000000413 145.74999999999997 12.401923788646672
    vertex 2.0000000000000413 146.4735428646924 12.102222521132784
  endloop
endfacet
facet normal 0.0 0.608761429008715 0.7933533402912395
  outer loop
    vertex 2.0000000000000413 145.1286796564403 12.878679656440344
    vertex 4.511946372076636e-14 145.74999999999997 12.401923788646672
    vertex 4.511946372076636e-14 145.1286796564403 12.878679656440344
  endloop
endfacet
facet normal 0.0 0.608761429008715 0.7933533402912395
  outer loop
    vertex 4.511946372076636e-14 145.74999999999997 12.401923788646672
    vertex 2.0000000000000413 145.1286796564403 12.878679656440344
    vertex 2.0000000000000413 145.74999999999997 12.401923788646672
  endloop
endfacet
facet normal 0.0 0.7933533402912477 0.6087614290087043
  outer loop
    vertex 4.511946372076636e-14 144.65192378864666 13.499999999999986
    vertex 2.0000000000000413 145.1286796564403 12.878679656440344
    vertex 4.511946372076636e-14 145.1286796564403 12.878679656440344
  endloop
endfacet
facet normal 0.0 0.7933533402912477 0.6087614290087043
  outer loop
    vertex 2.0000000000000413 145.1286796564403 12.878679656440344
    vertex 4.511946372076636e-14 144.65192378864666 13.499999999999986
    vertex 2.0000000000000413 144.65192378864666 13.499999999999986
  endloop
endfacet
facet normal 0.0 0.9238795325112797 0.38268343236510666
  outer loop
    vertex 4.511946372076636e-14 144.35222252113277 14.223542864692424
    vertex 2.0000000000000413 144.65192378864666 13.499999999999986
    vertex 4.511946372076636e-14 144.65192378864666 13.499999999999986
  endloop
endfacet
facet normal 0.0 0.9238795325112797 0.38268343236510666
  outer loop
    vertex 2.0000000000000413 144.65192378864666 13.499999999999986
    vertex 4.511946372076636e-14 144.35222252113277 14.223542864692424
    vertex 2.0000000000000413 144.35222252113277 14.223542864692424
  endloop
endfacet
facet normal -0.0 0.9914448613738114 0.13052619222004508
  outer loop
    vertex 4.511946372076636e-14 144.24999999999997 14.999999999999984
    vertex 2.0000000000000413 144.35222252113277 14.223542864692424
    vertex 4.511946372076636e-14 144.35222252113277 14.223542864692424
  endloop
endfacet
facet normal -0.0 0.9914448613738114 0.13052619222004508
  outer loop
    vertex 2.0000000000000413 144.35222252113277 14.223542864692424
    vertex 4.511946372076636e-14 144.24999999999997 14.999999999999984
    vertex 2.0000000000000413 144.24999999999997 14.999999999999984
  endloop
endfacet
facet normal 0.0 -1.0 0.0
  outer loop
    vertex 2.0000000000000426 150.24999999999997 35.0
    vertex 4.511946372076636e-14 150.24999999999997 14.999999999999984
    vertex 2.0000000000000413 150.24999999999997 14.999999999999984
  endloop
endfacet
facet normal 0.0 -1.0 0.0
  outer loop
    vertex 4.511946372076636e-14 150.24999999999997 14.999999999999984
    vertex 2.0000000000000426 150.24999999999997 35.0
    vertex 4.2702349592868183e-14 150.24999999999997 35.0
  endloop
endfacet
facet normal -0.0 1.0 -0.0
  outer loop
    vertex 4.4838637183085245e-14 144.24999999999997 35.0
    vertex 2.0000000000000413 144.24999999999997 14.999999999999984
    vertex 4.511946372076636e-14 144.24999999999997 14.999999999999984
  endloop
endfacet
facet normal -0.0 1.0 -0.0
  outer loop
    vertex 2.0000000000000413 144.24999999999997 14.999999999999984
    vertex 4.4838637183085245e-14 144.24999999999997 35.0
    vertex 2.0000000000000315 144.24999999999997 35.0
  endloop
endfacet
facet normal 0.0 -1.0 0.0
  outer loop
    vertex 63.99999999999997 150.24999999999997 34.99999999999999
    vertex 61.99999999999998 150.24999999999997 14.999999999999995
    vertex 63.99999999999997 150.24999999999997 14.999999999999995
  endloop
endfacet
facet normal 0.0 -1.0 0.0
  outer loop
    vertex 61.99999999999998 150.24999999999997 14.999999999999995
    vertex 63.99999999999997 150.24999999999997 34.99999999999999
    vertex 61.99999999999998 150.24999999999997 34.99999999999999
  endloop
endfacet
facet normal -0.0 1.0 -0.0
  outer loop
    vertex 61.99999999999998 144.24999999999997 34.99999999999999
    vertex 63.99999999999997 144.24999999999997 14.999999999999995
    vertex 61.99999999999998 144.24999999999997 14.999999999999995
  endloop
endfacet
facet normal -0.0 1.0 -0.0
  outer loop
    vertex 63.99999999999997 144.24999999999997 14.999999999999995
    vertex 61.99999999999998 144.24999999999997 34.99999999999999
    vertex 63.99999999999997 144.24999999999997 34.99999999999999
  endloop
endfacet
facet normal 0.0 -0.9914448613738114 0.1305261922200446
  outer loop
    vertex 63.99999999999997 150.24999999999997 14.999999999999995
    vertex 61.99999999999998 150.14777747886717 14.223542864692432
    vertex 63.99999999999997 150.14777747886717 14.223542864692432
  endloop
endfacet
facet normal 0.0 -0.9914448613738114 0.1305261922200446
  outer loop
    vertex 61.99999999999998 150.14777747886717 14.223542864692432
    vertex 63.99999999999997 150.24999999999997 14.999999999999995
    vertex 61.99999999999998 150.24999999999997 14.999999999999995
  endloop
endfacet
facet normal -0.0 -0.9238795325112793 0.382683432365108
  outer loop
    vertex 63.99999999999997 150.14777747886717 14.223542864692432
    vertex 61.99999999999998 149.84807621135326 13.499999999999998
    vertex 63.99999999999997 149.84807621135326 13.499999999999998
  endloop
endfacet
facet normal -0.0 -0.9238795325112793 0.382683432365108
  outer loop
    vertex 61.99999999999998 149.84807621135326 13.499999999999998
    vertex 63.99999999999997 150.14777747886717 14.223542864692432
    vertex 61.99999999999998 150.14777747886717 14.223542864692432
  endloop
endfacet
facet normal -0.0 -0.7933533402912477 0.6087614290087043
  outer loop
    vertex 63.99999999999997 149.84807621135326 13.499999999999998
    vertex 61.99999999999998 149.3713203435596 12.878679656440356
    vertex 63.99999999999997 149.3713203435596 12.878679656440356
  endloop
endfacet
facet normal -0.0 -0.7933533402912477 0.6087614290087043
  outer loop
    vertex 61.99999999999998 149.3713203435596 12.878679656440356
    vertex 63.99999999999997 149.84807621135326 13.499999999999998
    vertex 61.99999999999998 149.84807621135326 13.499999999999998
  endloop
endfacet
facet normal -0.0 -0.608761429008715 0.7933533402912395
  outer loop
    vertex 63.99999999999997 148.74999999999997 12.401923788646684
    vertex 61.99999999999998 149.3713203435596 12.878679656440356
    vertex 61.99999999999998 148.74999999999997 12.401923788646684
  endloop
endfacet
facet normal -0.0 -0.608761429008715 0.7933533402912395
  outer loop
    vertex 61.99999999999998 149.3713203435596 12.878679656440356
    vertex 63.99999999999997 148.74999999999997 12.401923788646684
    vertex 63.99999999999997 149.3713203435596 12.878679656440356
  endloop
endfacet
facet normal -0.0 -0.38268343236508695 0.923879532511288
  outer loop
    vertex 63.99999999999997 148.02645713530754 12.102222521132795
    vertex 61.99999999999998 148.74999999999997 12.401923788646684
    vertex 61.99999999999998 148.02645713530754 12.102222521132795
  endloop
endfacet
facet normal -0.0 -0.38268343236508695 0.923879532511288
  outer loop
    vertex 61.99999999999998 148.74999999999997 12.401923788646684
    vertex 63.99999999999997 148.02645713530754 12.102222521132795
    vertex 63.99999999999997 148.74999999999997 12.401923788646684
  endloop
endfacet
facet normal -0.0 -0.13052619222005263 0.9914448613738104
  outer loop
    vertex 63.99999999999997 147.24999999999997 12.0
    vertex 61.99999999999998 148.02645713530754 12.102222521132795
    vertex 61.99999999999998 147.24999999999997 12.0
  endloop
endfacet
facet normal -0.0 -0.13052619222005263 0.9914448613738104
  outer loop
    vertex 61.99999999999998 148.02645713530754 12.102222521132795
    vertex 63.99999999999997 147.24999999999997 12.0
    vertex 63.99999999999997 148.02645713530754 12.102222521132795
  endloop
endfacet
facet normal 0.0 0.13052619222005263 0.9914448613738104
  outer loop
    vertex 63.99999999999997 146.4735428646924 12.102222521132795
    vertex 61.99999999999998 147.24999999999997 12.0
    vertex 61.99999999999998 146.4735428646924 12.102222521132795
  endloop
endfacet
facet normal 0.0 0.13052619222005263 0.9914448613738104
  outer loop
    vertex 61.99999999999998 147.24999999999997 12.0
    vertex 63.99999999999997 146.4735428646924 12.102222521132795
    vertex 63.99999999999997 147.24999999999997 12.0
  endloop
endfacet
facet normal 0.0 0.38268343236508695 0.923879532511288
  outer loop
    vertex 63.99999999999997 145.74999999999997 12.401923788646684
    vertex 61.99999999999998 146.4735428646924 12.102222521132795
    vertex 61.99999999999998 145.74999999999997 12.401923788646684
  endloop
endfacet
facet normal 0.0 0.38268343236508695 0.923879532511288
  outer loop
    vertex 61.99999999999998 146.4735428646924 12.102222521132795
    vertex 63.99999999999997 145.74999999999997 12.401923788646684
    vertex 63.99999999999997 146.4735428646924 12.102222521132795
  endloop
endfacet
facet normal 0.0 0.608761429008715 0.7933533402912395
  outer loop
    vertex 63.99999999999997 145.1286796564403 12.878679656440356
    vertex 61.99999999999998 145.74999999999997 12.401923788646684
    vertex 61.99999999999998 145.1286796564403 12.878679656440356
  endloop
endfacet
facet normal 0.0 0.608761429008715 0.7933533402912395
  outer loop
    vertex 61.99999999999998 145.74999999999997 12.401923788646684
    vertex 63.99999999999997 145.1286796564403 12.878679656440356
    vertex 63.99999999999997 145.74999999999997 12.401923788646684
  endloop
endfacet
facet normal 0.0 0.7933533402912477 0.6087614290087043
  outer loop
    vertex 61.99999999999998 144.65192378864666 13.499999999999998
    vertex 63.99999999999997 145.1286796564403 12.878679656440356
    vertex 61.99999999999998 145.1286796564403 12.878679656440356
  endloop
endfacet
facet normal 0.0 0.7933533402912477 0.6087614290087043
  outer loop
    vertex 63.99999999999997 145.1286796564403 12.878679656440356
    vertex 61.99999999999998 144.65192378864666 13.499999999999998
    vertex 63.99999999999997 144.65192378864666 13.499999999999998
  endloop
endfacet
facet normal 0.0 0.9238795325112797 0.38268343236510666
  outer loop
    vertex 61.99999999999998 144.35222252113277 14.223542864692435
    vertex 63.99999999999997 144.65192378864666 13.499999999999998
    vertex 61.99999999999998 144.65192378864666 13.499999999999998
  endloop
endfacet
facet normal 0.0 0.9238795325112797 0.38268343236510666
  outer loop
    vertex 63.99999999999997 144.65192378864666 13.499999999999998
    vertex 61.99999999999998 144.35222252113277 14.223542864692435
    vertex 63.99999999999997 144.35222252113277 14.223542864692435
  endloop
endfacet
facet normal -0.0 0.9914448613738114 0.13052619222004508
  outer loop
    vertex 61.99999999999998 144.24999999999997 14.999999999999995
    vertex 63.99999999999997 144.35222252113277 14.223542864692435
    vertex 61.99999999999998 144.35222252113277 14.223542864692435
  endloop
endfacet
facet normal -0.0 0.9914448613738114 0.13052619222004508
  outer loop
    vertex 63.99999999999997 144.35222252113277 14.223542864692435
    vertex 61.99999999999998 144.24999999999997 14.999999999999995
    vertex 63.99999999999997 144.24999999999997 14.999999999999995
  endloop
endfacet
facet normal -1.0 2.7620703510218953e-16 -5.378383700546932e-17
  outer loop
    vertex 4.4838637183085245e-14 144.24999999999997 35.0
    vertex 0.0 15.0 14.999999999999995
    vertex 2.8259645283457094e-16 15.0 35.0
  endloop
endfacet
facet normal -1.0 2.7620703510218953e-16 -5.378383700546932e-17
  outer loop
    vertex 0.0 164.0 35.0
    vertex 4.511946372076636e-14 150.24999999999997 14.999999999999984
    vertex 4.2702349592868183e-14 150.24999999999997 35.0
  endloop
endfacet
facet normal -1.0 2.7620703510218953e-16 -5.378383700546932e-17
  outer loop
    vertex 0.0 9.0 35.0
    vertex 0.0 0.0 0.0
    vertex 0.0 0.0 35.0
  endloop
endfacet
facet normal -1.0 2.7620703510218953e-16 -5.378383700546932e-17
  outer loop
    vertex 0.0 0.0 0.0
    vertex 0.0 9.0 35.0
    vertex 0.0 9.0 14.999999999999995
  endloop
endfacet
facet normal -1.0 2.7620703510218953e-16 -5.378383700546932e-17
  outer loop
    vertex 0.0 0.0 0.0
    vertex 0.0 9.0 14.999999999999995
    vertex 0.0 9.102222521132795 14.223542864692432
  endloop
endfacet
facet normal -1.0 2.7620703510218953e-16 -5.378383700546932e-17
  outer loop
    vertex 0.0 0.0 0.0
    vertex 0.0 9.102222521132795 14.223542864692432
    vertex 0.0 9.401923788646684 13.499999999999995
  endloop
endfacet
facet normal -1.0 2.7620703510218953e-16 -5.378383700546932e-17
  outer loop
    vertex 0.0 0.0 0.0
    vertex 0.0 9.401923788646684 13.499999999999995
    vertex 0.0 9.878679656440358 12.878679656440353
  endloop
endfacet
facet normal -1.0 2.7620703510218953e-16 -5.378383700546932e-17
  outer loop
    vertex 0.0 0.0 0.0
    vertex 0.0 9.878679656440358 12.878679656440353
    vertex 0.0 10.5 12.401923788646679
  endloop
endfacet
facet normal -1.0 2.7620703510218953e-16 -5.378383700546932e-17
  outer loop
    vertex 0.0 0.0 0.0
    vertex 0.0 10.5 12.401923788646679
    vertex 0.0 11.223542864692439 12.10222252113279
  endloop
endfacet
facet normal -1.0 2.7620703510218953e-16 -5.378383700546932e-17
  outer loop
    vertex 0.0 0.0 0.0
    vertex 0.0 11.223542864692439 12.10222252113279
    vertex 0.0 12.0 11.999999999999995
  endloop
endfacet
facet normal -1.0 2.7620703510218953e-16 -5.378383700546932e-17
  outer loop
    vertex 0.0 0.0 0.0
    vertex 0.0 12.0 11.999999999999995
    vertex 0.0 164.0 0.0
  endloop
endfacet
facet normal -1.0 2.7620703510218953e-16 -5.378383700546932e-17
  outer loop
    vertex 0.0 164.0 0.0
    vertex 0.0 12.0 11.999999999999995
    vertex 0.0 12.776457135307563 12.10222252113279
  endloop
endfacet
facet normal -1.0 2.7620703510218953e-16 -5.378383700546932e-17
  outer loop
    vertex 0.0 164.0 0.0
    vertex 0.0 12.776457135307563 12.10222252113279
    vertex 0.0 13.5 12.401923788646679
  endloop
endfacet
facet normal -1.0 2.7620703510218953e-16 -5.378383700546932e-17
  outer loop
    vertex 0.0 164.0 0.0
    vertex 0.0 13.5 12.401923788646679
    vertex 0.0 14.121320343559642 12.878679656440353
  endloop
endfacet
facet normal -1.0 2.7620703510218953e-16 -5.378383700546932e-17
  outer loop
    vertex 0.0 164.0 0.0
    vertex 0.0 14.121320343559642 12.878679656440353
    vertex 0.0 14.598076211353316 13.499999999999995
  endloop
endfacet
facet normal -1.0 2.7620703510218953e-16 -5.378383700546932e-17
  outer loop
    vertex 0.0 164.0 0.0
    vertex 0.0 14.598076211353316 13.499999999999995
    vertex 0.0 14.897777478867205 14.223542864692432
  endloop
endfacet
facet normal -1.0 2.7620703510218953e-16 -5.378383700546932e-17
  outer loop
    vertex 0.0 164.0 0.0
    vertex 0.0 14.897777478867205 14.223542864692432
    vertex 0.0 15.0 14.999999999999995
  endloop
endfacet
facet normal -1.0 2.7620703510218953e-16 -5.378383700546932e-17
  outer loop
    vertex 0.0 164.0 0.0
    vertex 0.0 15.0 14.999999999999995
    vertex 4.511946372076636e-14 145.74999999999997 12.401923788646672
  endloop
endfacet
facet normal -1.0 2.7620703510218953e-16 -5.378383700546932e-17
  outer loop
    vertex 4.511946372076636e-14 145.74999999999997 12.401923788646672
    vertex 0.0 15.0 14.999999999999995
    vertex 4.511946372076636e-14 145.1286796564403 12.878679656440344
  endloop
endfacet
facet normal -1.0 2.7620703510218953e-16 -5.378383700546932e-17
  outer loop
    vertex 4.511946372076636e-14 145.1286796564403 12.878679656440344
    vertex 0.0 15.0 14.999999999999995
    vertex 4.511946372076636e-14 144.65192378864666 13.499999999999986
  endloop
endfacet
facet normal -1.0 2.7620703510218953e-16 -5.378383700546932e-17
  outer loop
    vertex 4.511946372076636e-14 144.65192378864666 13.499999999999986
    vertex 0.0 15.0 14.999999999999995
    vertex 4.511946372076636e-14 144.35222252113277 14.223542864692424
  endloop
endfacet
facet normal -1.0 2.7620703510218953e-16 -5.378383700546932e-17
  outer loop
    vertex 4.511946372076636e-14 144.35222252113277 14.223542864692424
    vertex 0.0 15.0 14.999999999999995
    vertex 4.511946372076636e-14 144.24999999999997 14.999999999999984
  endloop
endfacet
facet normal -1.0 2.7620703510218953e-16 -5.378383700546932e-17
  outer loop
    vertex 4.511946372076636e-14 144.24999999999997 14.999999999999984
    vertex 0.0 15.0 14.999999999999995
    vertex 4.4838637183085245e-14 144.24999999999997 35.0
  endloop
endfacet
facet normal -1.0 2.7620703510218953e-16 -5.378383700546932e-17
  outer loop
    vertex 0.0 164.0 0.0
    vertex 4.511946372076636e-14 145.74999999999997 12.401923788646672
    vertex 4.511946372076636e-14 146.4735428646924 12.102222521132784
  endloop
endfacet
facet normal -1.0 2.7620703510218953e-16 -5.378383700546932e-17
  outer loop
    vertex 0.0 164.0 0.0
    vertex 4.511946372076636e-14 146.4735428646924 12.102222521132784
    vertex 4.511946372076636e-14 147.24999999999997 11.99999999999999
  endloop
endfacet
facet normal -1.0 2.7620703510218953e-16 -5.378383700546932e-17
  outer loop
    vertex 0.0 164.0 0.0
    vertex 4.511946372076636e-14 147.24999999999997 11.99999999999999
    vertex 4.511946372076636e-14 148.02645713530754 12.102222521132784
  endloop
endfacet
facet normal -1.0 2.7620703510218953e-16 -5.378383700546932e-17
  outer loop
    vertex 0.0 164.0 0.0
    vertex 4.511946372076636e-14 148.02645713530754 12.102222521132784
    vertex 4.511946372076636e-14 148.74999999999997 12.401923788646672
  endloop
endfacet
facet normal -1.0 2.7620703510218953e-16 -5.378383700546932e-17
  outer loop
    vertex 0.0 164.0 0.0
    vertex 4.511946372076636e-14 148.74999999999997 12.401923788646672
    vertex 4.511946372076636e-14 149.3713203435596 12.878679656440344
  endloop
endfacet
facet normal -1.0 2.7620703510218953e-16 -5.378383700546932e-17
  outer loop
    vertex 0.0 164.0 0.0
    vertex 4.511946372076636e-14 149.3713203435596 12.878679656440344
    vertex 4.511946372076636e-14 149.84807621135326 13.499999999999986
  endloop
endfacet
facet normal -1.0 2.7620703510218953e-16 -5.378383700546932e-17
  outer loop
    vertex 0.0 164.0 0.0
    vertex 4.511946372076636e-14 149.84807621135326 13.499999999999986
    vertex 4.511946372076636e-14 150.14777747886717 14.223542864692421
  endloop
endfacet
facet normal -1.0 2.7620703510218953e-16 -5.378383700546932e-17
  outer loop
    vertex 0.0 164.0 0.0
    vertex 4.511946372076636e-14 150.14777747886717 14.223542864692421
    vertex 4.511946372076636e-14 150.24999999999997 14.999999999999984
  endloop
endfacet
facet normal -1.0 2.7620703510218953e-16 -5.378383700546932e-17
  outer loop
    vertex 0.0 164.0 0.0
    vertex 4.511946372076636e-14 150.24999999999997 14.999999999999984
    vertex 0.0 164.0 35.0
  endloop
endfacet
facet normal 0.0 -1.0 0.0
  outer loop
    vertex 1.9999999999999953 15.0 35.0
    vertex 0.0 15.0 14.999999999999995
    vertex 1.999999999999995 15.0 14.999999999999995
  endloop
endfacet
facet normal 0.0 -1.0 0.0
  outer loop
    vertex 0.0 15.0 14.999999999999995
    vertex 1.9999999999999953 15.0 35.0
    vertex 2.8259645283457094e-16 15.0 35.0
  endloop
endfacet
facet normal -0.0 1.0 -0.0
  outer loop
    vertex 0.0 9.0 35.0
    vertex 1.9999999999999962 9.0 14.999999999999995
    vertex 0.0 9.0 14.999999999999995
  endloop
endfacet
facet normal -0.0 1.0 -0.0
  outer loop
    vertex 1.9999999999999962 9.0 14.999999999999995
    vertex 0.0 9.0 35.0
    vertex 1.9999999999999962 9.0 35.0
  endloop
endfacet
facet normal 0.0 -0.9914448613738105 0.13052619222005168
  outer loop
    vertex 1.999999999999995 15.0 14.999999999999995
    vertex 0.0 14.897777478867205 14.223542864692432
    vertex 1.999999999999995 14.897777478867205 14.223542864692432
  endloop
endfacet
facet normal 0.0 -0.9914448613738105 0.13052619222005168
  outer loop
    vertex 0.0 14.897777478867205 14.223542864692432
    vertex 1.999999999999995 15.0 14.999999999999995
    vertex 0.0 15.0 14.999999999999995
  endloop
endfacet
facet normal -0.0 -0.9238795325112862 0.38268343236509134
  outer loop
    vertex 1.999999999999995 14.897777478867205 14.223542864692432
    vertex 0.0 14.598076211353316 13.499999999999995
    vertex 1.999999999999995 14.598076211353316 13.499999999999995
  endloop
endfacet
facet normal -0.0 -0.9238795325112862 0.38268343236509134
  outer loop
    vertex 0.0 14.598076211353316 13.499999999999995
    vertex 1.999999999999995 14.897777478867205 14.223542864692432
    vertex 0.0 14.897777478867205 14.223542864692432
  endloop
endfacet
facet normal -0.0 -0.7933533402912355 0.6087614290087202
  outer loop
    vertex 1.999999999999995 14.598076211353316 13.499999999999995
    vertex 0.0 14.121320343559642 12.878679656440353
    vertex 1.999999999999995 14.121320343559642 12.878679656440353
  endloop
endfacet
facet normal -0.0 -0.7933533402912355 0.6087614290087202
  outer loop
    vertex 0.0 14.121320343559642 12.878679656440353
    vertex 1.999999999999995 14.598076211353316 13.499999999999995
    vertex 0.0 14.598076211353316 13.499999999999995
  endloop
endfacet
facet normal -0.0 -0.6087614290087213 0.7933533402912346
  outer loop
    vertex 1.999999999999995 13.5 12.401923788646679
    vertex 0.0 14.121320343559642 12.878679656440353
    vertex 0.0 13.5 12.401923788646679
  endloop
endfacet
facet normal -0.0 -0.6087614290087213 0.7933533402912346
  outer loop
    vertex 0.0 14.121320343559642 12.878679656440353
    vertex 1.999999999999995 13.5 12.401923788646679
    vertex 1.999999999999995 14.121320343559642 12.878679656440353
  endloop
endfacet
facet normal -0.0 -0.3826834323650898 0.9238795325112867
  outer loop
    vertex 1.999999999999995 12.776457135307563 12.10222252113279
    vertex 0.0 13.5 12.401923788646679
    vertex 0.0 12.776457135307563 12.10222252113279
  endloop
endfacet
facet normal -0.0 -0.3826834323650898 0.9238795325112867
  outer loop
    vertex 0.0 13.5 12.401923788646679
    vertex 1.999999999999995 12.776457135307563 12.10222252113279
    vertex 1.999999999999995 13.5 12.401923788646679
  endloop
endfacet
facet normal -0.0 -0.13052619222005168 0.9914448613738105
  outer loop
    vertex 1.999999999999995 12.0 11.999999999999995
    vertex 0.0 12.776457135307563 12.10222252113279
    vertex 0.0 12.0 11.999999999999995
  endloop
endfacet
facet normal -0.0 -0.13052619222005168 0.9914448613738105
  outer loop
    vertex 0.0 12.776457135307563 12.10222252113279
    vertex 1.999999999999995 12.0 11.999999999999995
    vertex 1.999999999999995 12.776457135307563 12.10222252113279
  endloop
endfacet
facet normal 0.0 0.13052619222005168 0.9914448613738105
  outer loop
    vertex 1.999999999999995 11.223542864692439 12.10222252113279
    vertex 0.0 12.0 11.999999999999995
    vertex 0.0 11.223542864692439 12.10222252113279
  endloop
endfacet
facet normal 0.0 0.13052619222005168 0.9914448613738105
  outer loop
    vertex 0.0 12.0 11.999999999999995
    vertex 1.999999999999995 11.223542864692439 12.10222252113279
    vertex 1.999999999999995 12.0 11.999999999999995
  endloop
endfacet
facet normal 0.0 0.3826834323650898 0.9238795325112867
  outer loop
    vertex 1.999999999999995 10.5 12.401923788646679
    vertex 0.0 11.223542864692439 12.10222252113279
    vertex 0.0 10.5 12.401923788646679
  endloop
endfacet
facet normal 0.0 0.3826834323650898 0.9238795325112867
  outer loop
    vertex 0.0 11.223542864692439 12.10222252113279
    vertex 1.999999999999995 10.5 12.401923788646679
    vertex 1.999999999999995 11.223542864692439 12.10222252113279
  endloop
endfacet
facet normal 0.0 0.6087614290087213 0.7933533402912346
  outer loop
    vertex 1.999999999999995 9.878679656440358 12.878679656440353
    vertex 0.0 10.5 12.401923788646679
    vertex 0.0 9.878679656440358 12.878679656440353
  endloop
endfacet
facet normal 0.0 0.6087614290087213 0.7933533402912346
  outer loop
    vertex 0.0 10.5 12.401923788646679
    vertex 1.999999999999995 9.878679656440358 12.878679656440353
    vertex 1.999999999999995 10.5 12.401923788646679
  endloop
endfacet
facet normal 0.0 0.7933533402912346 0.6087614290087213
  outer loop
    vertex 0.0 9.401923788646684 13.499999999999995
    vertex 1.999999999999995 9.878679656440358 12.878679656440353
    vertex 0.0 9.878679656440358 12.878679656440353
  endloop
endfacet
facet normal 0.0 0.7933533402912346 0.6087614290087213
  outer loop
    vertex 1.999999999999995 9.878679656440358 12.878679656440353
    vertex 0.0 9.401923788646684 13.499999999999995
    vertex 1.999999999999995 9.401923788646684 13.499999999999995
  endloop
endfacet
facet normal 0.0 0.9238795325112867 0.3826834323650898
  outer loop
    vertex 0.0 9.102222521132795 14.223542864692432
    vertex 1.999999999999995 9.401923788646684 13.499999999999995
    vertex 0.0 9.401923788646684 13.499999999999995
  endloop
endfacet
facet normal 0.0 0.9238795325112867 0.3826834323650898
  outer loop
    vertex 1.999999999999995 9.401923788646684 13.499999999999995
    vertex 0.0 9.102222521132795 14.223542864692432
    vertex 1.999999999999995 9.102222521132795 14.223542864692432
  endloop
endfacet
facet normal -9.227010057047807e-19 0.9914448613738105 0.13052619222005168
  outer loop
    vertex 0.0 9.0 14.999999999999995
    vertex 1.999999999999995 9.102222521132795 14.223542864692432
    vertex 0.0 9.102222521132795 14.223542864692432
  endloop
endfacet
facet normal -9.227010057047807e-19 0.9914448613738105 0.13052619222005168
  outer loop
    vertex 1.999999999999995 9.102222521132795 14.223542864692432
    vertex 0.0 9.0 14.999999999999995
    vertex 1.9999999999999962 9.0 14.999999999999995
  endloop
endfacet
facet normal -1.0 0.0 0.0
  outer loop
    vertex 61.99999999999998 144.24999999999997 34.99999999999999
    vertex 61.99999999999998 15.0 14.999999999999995
    vertex 61.99999999999998 15.0 34.99999999999999
  endloop
endfacet
facet normal -1.0 0.0 0.0
  outer loop
    vertex 61.99999999999998 162.0 35.0
    vertex 61.99999999999998 150.24999999999997 14.999999999999995
    vertex 61.99999999999998 150.24999999999997 34.99999999999999
  endloop
endfacet
facet normal -1.0 0.0 0.0
  outer loop
    vertex 61.99999999999998 9.0 34.99999999999999
    vertex 61.99999999999998 1.9999999999999998 1.9999999999999998
    vertex 61.99999999999998 1.9999999999999998 35.0
  endloop
endfacet
facet normal -1.0 0.0 0.0
  outer loop
    vertex 61.99999999999998 1.9999999999999998 1.9999999999999998
    vertex 61.99999999999998 9.0 34.99999999999999
    vertex 61.99999999999998 9.0 14.999999999999995
  endloop
endfacet
facet normal -1.0 0.0 0.0
  outer loop
    vertex 61.99999999999998 1.9999999999999998 1.9999999999999998
    vertex 61.99999999999998 9.0 14.999999999999995
    vertex 61.99999999999998 9.102222521132795 14.223542864692432
  endloop
endfacet
facet normal -1.0 0.0 0.0
  outer loop
    vertex 61.99999999999998 1.9999999999999998 1.9999999999999998
    vertex 61.99999999999998 9.102222521132795 14.223542864692432
    vertex 61.99999999999998 9.401923788646684 13.499999999999995
  endloop
endfacet
facet normal -1.0 0.0 0.0
  outer loop
    vertex 61.99999999999998 1.9999999999999998 1.9999999999999998
    vertex 61.99999999999998 9.401923788646684 13.499999999999995
    vertex 61.99999999999998 9.878679656440358 12.878679656440353
  endloop
endfacet
facet normal -1.0 0.0 0.0
  outer loop
    vertex 61.99999999999998 1.9999999999999998 1.9999999999999998
    vertex 61.99999999999998 9.878679656440358 12.878679656440353
    vertex 61.99999999999998 10.5 12.401923788646679
  endloop
endfacet
facet normal -1.0 0.0 0.0
  outer loop
    vertex 61.99999999999998 1.9999999999999998 1.9999999999999998
    vertex 61.99999999999998 10.5 12.401923788646679
    vertex 61.99999999999998 11.223542864692439 12.10222252113279
  endloop
endfacet
facet normal -1.0 0.0 0.0
  outer loop
    vertex 61.99999999999998 1.9999999999999998 1.9999999999999998
    vertex 61.99999999999998 11.223542864692439 12.10222252113279
    vertex 61.99999999999998 12.0 11.999999999999995
  endloop
endfacet
facet normal -1.0 0.0 0.0
  outer loop
    vertex 61.99999999999998 1.9999999999999998 1.9999999999999998
    vertex 61.99999999999998 12.0 11.999999999999995
    vertex 61.99999999999998 162.0 1.9999999999999998
  endloop
endfacet
facet normal -1.0 0.0 0.0
  outer loop
    vertex 61.99999999999998 162.0 1.9999999999999998
    vertex 61.99999999999998 12.0 11.999999999999995
    vertex 61.99999999999998 12.776457135307563 12.10222252113279
  endloop
endfacet
facet normal -1.0 0.0 0.0
  outer loop
    vertex 61.99999999999998 162.0 1.9999999999999998
    vertex 61.99999999999998 12.776457135307563 12.10222252113279
    vertex 61.99999999999998 13.5 12.401923788646679
  endloop
endfacet
facet normal -1.0 0.0 0.0
  outer loop
    vertex 61.99999999999998 162.0 1.9999999999999998
    vertex 61.99999999999998 13.5 12.401923788646679
    vertex 61.99999999999998 14.121320343559642 12.878679656440353
  endloop
endfacet
facet normal -1.0 0.0 0.0
  outer loop
    vertex 61.99999999999998 162.0 1.9999999999999998
    vertex 61.99999999999998 14.121320343559642 12.878679656440353
    vertex 61.99999999999998 14.598076211353316 13.499999999999995
  endloop
endfacet
facet normal -1.0 0.0 0.0
  outer loop
    vertex 61.99999999999998 162.0 1.9999999999999998
    vertex 61.99999999999998 14.598076211353316 13.499999999999995
    vertex 61.99999999999998 14.897777478867205 14.223542864692432
  endloop
endfacet
facet normal -1.0 0.0 0.0
  outer loop
    vertex 61.99999999999998 162.0 1.9999999999999998
    vertex 61.99999999999998 14.897777478867205 14.223542864692432
    vertex 61.99999999999998 15.0 14.999999999999995
  endloop
endfacet
facet normal -1.0 0.0 0.0
  outer loop
    vertex 61.99999999999998 162.0 1.9999999999999998
    vertex 61.99999999999998 15.0 14.999999999999995
    vertex 61.99999999999998 145.74999999999997 12.401923788646684
  endloop
endfacet
facet normal -1.0 0.0 0.0
  outer loop
    vertex 61.99999999999998 145.74999999999997 12.401923788646684
    vertex 61.99999999999998 15.0 14.999999999999995
    vertex 61.99999999999998 145.1286796564403 12.878679656440356
  endloop
endfacet
facet normal -1.0 0.0 0.0
  outer loop
    vertex 61.99999999999998 145.1286796564403 12.878679656440356
    vertex 61.99999999999998 15.0 14.999999999999995
    vertex 61.99999999999998 144.65192378864666 13.499999999999998
  endloop
endfacet
facet normal -1.0 0.0 0.0
  outer loop
    vertex 61.99999999999998 144.65192378864666 13.499999999999998
    vertex 61.99999999999998 15.0 14.999999999999995
    vertex 61.99999999999998 144.35222252113277 14.223542864692435
  endloop
endfacet
facet normal -1.0 0.0 0.0
  outer loop
    vertex 61.99999999999998 144.35222252113277 14.223542864692435
    vertex 61.99999999999998 15.0 14.999999999999995
    vertex 61.99999999999998 144.24999999999997 14.999999999999995
  endloop
endfacet
facet normal -1.0 0.0 0.0
  outer loop
    vertex 61.99999999999998 144.24999999999997 14.999999999999995
    vertex 61.99999999999998 15.0 14.999999999999995
    vertex 61.99999999999998 144.24999999999997 34.99999999999999
  endloop
endfacet
facet normal -1.0 0.0 0.0
  outer loop
    vertex 61.99999999999998 162.0 1.9999999999999998
    vertex 61.99999999999998 145.74999999999997 12.401923788646684
    vertex 61.99999999999998 146.4735428646924 12.102222521132795
  endloop
endfacet
facet normal -1.0 0.0 0.0
  outer loop
    vertex 61.99999999999998 162.0 1.9999999999999998
    vertex 61.99999999999998 146.4735428646924 12.102222521132795
    vertex 61.99999999999998 147.24999999999997 12.0
  endloop
endfacet
facet normal -1.0 0.0 0.0
  outer loop
    vertex 61.99999999999998 162.0 1.9999999999999998
    vertex 61.99999999999998 147.24999999999997 12.0
    vertex 61.99999999999998 148.02645713530754 12.102222521132795
  endloop
endfacet
facet normal -1.0 0.0 0.0
  outer loop
    vertex 61.99999999999998 162.0 1.9999999999999998
    vertex 61.99999999999998 148.02645713530754 12.102222521132795
    vertex 61.99999999999998 148.74999999999997 12.401923788646684
  endloop
endfacet
facet normal -1.0 0.0 0.0
  outer loop
    vertex 61.99999999999998 162.0 1.9999999999999998
    vertex 61.99999999999998 148.74999999999997 12.401923788646684
    vertex 61.99999999999998 149.3713203435596 12.878679656440356
  endloop
endfacet
facet normal -1.0 0.0 0.0
  outer loop
    vertex 61.99999999999998 162.0 1.9999999999999998
    vertex 61.99999999999998 149.3713203435596 12.878679656440356
    vertex 61.99999999999998 149.84807621135326 13.499999999999998
  endloop
endfacet
facet normal -1.0 0.0 0.0
  outer loop
    vertex 61.99999999999998 162.0 1.9999999999999998
    vertex 61.99999999999998 149.84807621135326 13.499999999999998
    vertex 61.99999999999998 150.14777747886717 14.223542864692432
  endloop
endfacet
facet normal -1.0 0.0 0.0
  outer loop
    vertex 61.99999999999998 162.0 1.9999999999999998
    vertex 61.99999999999998 150.14777747886717 14.223542864692432
    vertex 61.99999999999998 150.24999999999997 14.999999999999995
  endloop
endfacet
facet normal -1.0 0.0 0.0
  outer loop
    vertex 61.99999999999998 162.0 1.9999999999999998
    vertex 61.99999999999998 150.24999999999997 14.999999999999995
    vertex 61.99999999999998 162.0 35.0
  endloop
endfacet
facet normal 0.0 -1.0 0.0
  outer loop
    vertex 63.99999999999997 15.0 34.99999999999999
    vertex 61.99999999999998 15.0 14.999999999999995
    vertex 63.99999999999997 15.0 14.999999999999995
  endloop
endfacet
facet normal 0.0 -1.0 0.0
  outer loop
    vertex 61.99999999999998 15.0 14.999999999999995
    vertex 63.99999999999997 15.0 34.99999999999999
    vertex 61.99999999999998 15.0 34.99999999999999
  endloop
endfacet
facet normal -0.0 1.0 -0.0
  outer loop
    vertex 61.99999999999998 9.0 34.99999999999999
    vertex 63.99999999999997 9.0 14.999999999999995
    vertex 61.99999999999998 9.0 14.999999999999995
  endloop
endfacet
facet normal -0.0 1.0 -0.0
  outer loop
    vertex 63.99999999999997 9.0 14.999999999999995
    vertex 61.99999999999998 9.0 34.99999999999999
    vertex 63.99999999999997 9.0 34.99999999999999
  endloop
endfacet
facet normal 0.0 -0.9914448613738105 0.13052619222005168
  outer loop
    vertex 63.99999999999997 15.0 14.999999999999995
    vertex 61.99999999999998 14.897777478867205 14.223542864692432
    vertex 63.99999999999997 14.897777478867205 14.223542864692432
  endloop
endfacet
facet normal 0.0 -0.9914448613738105 0.13052619222005168
  outer loop
    vertex 61.99999999999998 14.897777478867205 14.223542864692432
    vertex 63.99999999999997 15.0 14.999999999999995
    vertex 61.99999999999998 15.0 14.999999999999995
  endloop
endfacet
facet normal -0.0 -0.9238795325112862 0.38268343236509134
  outer loop
    vertex 63.99999999999997 14.897777478867205 14.223542864692432
    vertex 61.99999999999998 14.598076211353316 13.499999999999995
    vertex 63.99999999999997 14.598076211353316 13.499999999999995
  endloop
endfacet
facet normal -0.0 -0.9238795325112862 0.38268343236509134
  outer loop
    vertex 61.99999999999998 14.598076211353316 13.499999999999995
    vertex 63.99999999999997 14.897777478867205 14.223542864692432
    vertex 61.99999999999998 14.897777478867205 14.223542864692432
  endloop
endfacet
facet normal -0.0 -0.7933533402912355 0.6087614290087202
  outer loop
    vertex 63.99999999999997 14.598076211353316 13.499999999999995
    vertex 61.99999999999998 14.121320343559642 12.878679656440353
    vertex 63.99999999999997 14.121320343559642 12.878679656440353
  endloop
endfacet
facet normal -0.0 -0.7933533402912355 0.6087614290087202
  outer loop
    vertex 61.99999999999998 14.121320343559642 12.878679656440353
    vertex 63.99999999999997 14.598076211353316 13.499999999999995
    vertex 61.99999999999998 14.598076211353316 13.499999999999995
  endloop
endfacet
facet normal -0.0 -0.6087614290087213 0.7933533402912346
  outer loop
    vertex 63.99999999999997 13.5 12.401923788646679
    vertex 61.99999999999998 14.121320343559642 12.878679656440353
    vertex 61.99999999999998 13.5 12.401923788646679
  endloop
endfacet
facet normal -0.0 -0.6087614290087213 0.7933533402912346
  outer loop
    vertex 61.99999999999998 14.121320343559642 12.878679656440353
    vertex 63.99999999999997 13.5 12.401923788646679
    vertex 63.99999999999997 14.121320343559642 12.878679656440353
  endloop
endfacet
facet normal -0.0 -0.3826834323650898 0.9238795325112867
  outer loop
    vertex 63.99999999999997 12.776457135307563 12.10222252113279
    vertex 61.99999999999998 13.5 12.401923788646679
    vertex 61.99999999999998 12.776457135307563 12.10222252113279
  endloop
endfacet
facet normal -0.0 -0.3826834323650898 0.9238795325112867
  outer loop
    vertex 61.99999999999998 13.5 12.401923788646679
    vertex 63.99999999999997 12.776457135307563 12.10222252113279
    vertex 63.99999999999997 13.5 12.401923788646679
  endloop
endfacet
facet normal -0.0 -0.13052619222005168 0.9914448613738105
  outer loop
    vertex 63.99999999999997 12.0 11.999999999999995
    vertex 61.99999999999998 12.776457135307563 12.10222252113279
    vertex 61.99999999999998 12.0 11.999999999999995
  endloop
endfacet
facet normal -0.0 -0.13052619222005168 0.9914448613738105
  outer loop
    vertex 61.99999999999998 12.776457135307563 12.10222252113279
    vertex 63.99999999999997 12.0 11.999999999999995
    vertex 63.99999999999997 12.776457135307563 12.10222252113279
  endloop
endfacet
facet normal 0.0 0.13052619222005168 0.9914448613738105
  outer loop
    vertex 63.99999999999997 11.223542864692439 12.10222252113279
    vertex 61.99999999999998 12.0 11.999999999999995
    vertex 61.99999999999998 11.223542864692439 12.10222252113279
  endloop
endfacet
facet normal 0.0 0.13052619222005168 0.9914448613738105
  outer loop
    vertex 61.99999999999998 12.0 11.999999999999995
    vertex 63.99999999999997 11.223542864692439 12.10222252113279
    vertex 63.99999999999997 12.0 11.999999999999995
  endloop
endfacet
facet normal 0.0 0.3826834323650898 0.9238795325112867
  outer loop
    vertex 63.99999999999997 10.5 12.401923788646679
    vertex 61.99999999999998 11.223542864692439 12.10222252113279
    vertex 61.99999999999998 10.5 12.401923788646679
  endloop
endfacet
facet normal 0.0 0.3826834323650898 0.9238795325112867
  outer loop
    vertex 61.99999999999998 11.223542864692439 12.10222252113279
    vertex 63.99999999999997 10.5 12.401923788646679
    vertex 63.99999999999997 11.223542864692439 12.10222252113279
  endloop
endfacet
facet normal 0.0 0.6087614290087213 0.7933533402912346
  outer loop
    vertex 63.99999999999997 9.878679656440358 12.878679656440353
    vertex 61.99999999999998 10.5 12.401923788646679
    vertex 61.99999999999998 9.878679656440358 12.878679656440353
  endloop
endfacet
facet normal 0.0 0.6087614290087213 0.7933533402912346
  outer loop
    vertex 61.99999999999998 10.5 12.401923788646679
    vertex 63.99999999999997 9.878679656440358 12.878679656440353
    vertex 63.99999999999997 10.5 12.401923788646679
  endloop
endfacet
facet normal 0.0 0.7933533402912346 0.6087614290087213
  outer loop
    vertex 61.99999999999998 9.401923788646684 13.499999999999995
    vertex 63.99999999999997 9.878679656440358 12.878679656440353
    vertex 61.99999999999998 9.878679656440358 12.878679656440353
  endloop
endfacet
facet normal 0.0 0.7933533402912346 0.6087614290087213
  outer loop
    vertex 63.99999999999997 9.878679656440358 12.878679656440353
    vertex 61.99999999999998 9.401923788646684 13.499999999999995
    vertex 63.99999999999997 9.401923788646684 13.499999999999995
  endloop
endfacet
facet normal 0.0 0.9238795325112867 0.3826834323650898
  outer loop
    vertex 61.99999999999998 9.102222521132795 14.223542864692432
    vertex 63.99999999999997 9.401923788646684 13.499999999999995
    vertex 61.99999999999998 9.401923788646684 13.499999999999995
  endloop
endfacet
facet normal 0.0 0.9238795325112867 0.3826834323650898
  outer loop
    vertex 63.99999999999997 9.401923788646684 13.499999999999995
    vertex 61.99999999999998 9.102222521132795 14.223542864692432
    vertex 63.99999999999997 9.102222521132795 14.223542864692432
  endloop
endfacet
facet normal -0.0 0.9914448613738105 0.13052619222005168
  outer loop
    vertex 61.99999999999998 9.0 14.999999999999995
    vertex 63.99999999999997 9.102222521132795 14.223542864692432
    vertex 61.99999999999998 9.102222521132795 14.223542864692432
  endloop
endfacet
facet normal -0.0 0.9914448613738105 0.13052619222005168
  outer loop
    vertex 63.99999999999997 9.102222521132795 14.223542864692432
    vertex 61.99999999999998 9.0 14.999999999999995
    vertex 63.99999999999997 9.0 14.999999999999995
  endloop
endfacet
endsolid Waterproof Lower Casing BSE robot tank
